<svg width="32" height="36" viewBox="0 0 32 36" fill="none" xmlns="http://www.w3.org/2000/svg">
<path d="M15.0127 35.4167C14.25 35.4167 13.5387 35.2456 12.8787 34.9033C12.2187 34.5611 11.6638 34.0673 11.214 33.422L0.292836 17.4225C0.188947 17.2905 0.146169 17.1457 0.164502 16.988C0.184058 16.8303 0.255558 16.6928 0.379003 16.5755C0.772558 16.1832 1.237 15.9705 1.77234 15.9375C2.30767 15.9045 2.80267 16.0469 3.25734 16.3647L9.66667 20.8178V5.27117C9.66667 5.01206 9.75467 4.79511 9.93067 4.62033C10.1067 4.44556 10.3248 4.35756 10.5852 4.35633C10.8455 4.35511 11.0631 4.44311 11.2378 4.62033C11.4126 4.79756 11.5 5.01511 11.5 5.273V21.5255C11.5 22.1146 11.236 22.5503 10.708 22.8327C10.18 23.115 9.66973 23.0777 9.17717 22.7208L3.41317 18.7022L12.7228 32.3715C12.9697 32.7565 13.2954 33.0547 13.7 33.2662C14.1033 33.4776 14.5409 33.5833 15.0127 33.5833H25.25C26.5407 33.5833 27.6272 33.1421 28.5097 32.2597C29.3921 31.3772 29.8333 30.2907 29.8333 29V6.08333C29.8333 5.823 29.9213 5.60544 30.0973 5.43067C30.2733 5.25589 30.4915 5.16789 30.7518 5.16667C31.0122 5.16544 31.2297 5.25344 31.4045 5.43067C31.5793 5.60789 31.6667 5.82544 31.6667 6.08333V29C31.6667 30.782 31.0427 32.2969 29.7948 33.5448C28.5469 34.7927 27.032 35.4167 25.25 35.4167H15.0127ZM17.319 0.689667C17.5793 0.689667 17.7969 0.777055 17.9717 0.951833C18.1464 1.12661 18.2338 1.34478 18.2338 1.60633V16.1667C18.2338 16.427 18.1458 16.6446 17.9698 16.8193C17.7938 16.9953 17.5763 17.0833 17.3172 17.0833C17.0568 17.0833 16.8387 16.9953 16.6627 16.8193C16.4867 16.6433 16.3993 16.4258 16.4005 16.1667V1.60633C16.4005 1.346 16.4885 1.12844 16.6645 0.953666C16.8405 0.778889 17.0587 0.690889 17.319 0.689667ZM24.0528 2.523C24.3132 2.523 24.5307 2.611 24.7055 2.787C24.8803 2.96178 24.9677 3.17933 24.9677 3.43967V16.1667C24.9677 16.427 24.8797 16.6446 24.7037 16.8193C24.5277 16.9941 24.3095 17.0821 24.0492 17.0833C23.7888 17.0846 23.5719 16.9966 23.3983 16.8193C23.2248 16.6421 23.1368 16.4246 23.1343 16.1667V3.43967C23.1343 3.17933 23.2223 2.96178 23.3983 2.787C23.5743 2.611 23.7925 2.523 24.0528 2.523Z" fill="#A1B0E7"/>
</svg>
