<svg width="262" height="44" viewBox="0 0 262 44" fill="none" xmlns="http://www.w3.org/2000/svg">
<g clip-path="url(#clip0_1_64)">
<path d="M20.0127 39.4167C19.25 39.4167 18.5387 39.2456 17.8787 38.9033C17.2187 38.5611 16.6638 38.0673 16.214 37.422L5.29284 21.4225C5.18895 21.2905 5.14617 21.1457 5.1645 20.988C5.18406 20.8303 5.25556 20.6928 5.379 20.5755C5.77256 20.1832 6.237 19.9705 6.77234 19.9375C7.30767 19.9045 7.80267 20.0469 8.25734 20.3647L14.6667 24.8178V9.27117C14.6667 9.01206 14.7547 8.79511 14.9307 8.62033C15.1067 8.44556 15.3248 8.35756 15.5852 8.35633C15.8455 8.35511 16.0631 8.44311 16.2378 8.62033C16.4126 8.79756 16.5 9.01511 16.5 9.273V25.5255C16.5 26.1146 16.236 26.5503 15.708 26.8327C15.18 27.115 14.6697 27.0777 14.1772 26.7208L8.41317 22.7022L17.7228 36.3715C17.9697 36.7565 18.2954 37.0547 18.7 37.2662C19.1033 37.4776 19.5409 37.5833 20.0127 37.5833H30.25C31.5407 37.5833 32.6272 37.1421 33.5097 36.2597C34.3921 35.3772 34.8333 34.2907 34.8333 33V10.0833C34.8333 9.823 34.9213 9.60544 35.0973 9.43067C35.2733 9.25589 35.4915 9.16789 35.7518 9.16667C36.0122 9.16544 36.2297 9.25344 36.4045 9.43067C36.5793 9.60789 36.6667 9.82544 36.6667 10.0833V33C36.6667 34.782 36.0427 36.2969 34.7948 37.5448C33.5469 38.7927 32.032 39.4167 30.25 39.4167H20.0127ZM22.319 4.68967C22.5793 4.68967 22.7969 4.77706 22.9717 4.95183C23.1464 5.12661 23.2338 5.34478 23.2338 5.60633V20.1667C23.2338 20.427 23.1458 20.6446 22.9698 20.8193C22.7938 20.9953 22.5763 21.0833 22.3172 21.0833C22.0568 21.0833 21.8387 20.9953 21.6627 20.8193C21.4867 20.6433 21.3993 20.4258 21.4005 20.1667V5.60633C21.4005 5.346 21.4885 5.12844 21.6645 4.95367C21.8405 4.77889 22.0587 4.69089 22.319 4.68967ZM29.0528 6.523C29.3132 6.523 29.5307 6.611 29.7055 6.787C29.8803 6.96178 29.9677 7.17933 29.9677 7.43967V20.1667C29.9677 20.427 29.8797 20.6446 29.7037 20.8193C29.5277 20.9941 29.3095 21.0821 29.0492 21.0833C28.7888 21.0846 28.5719 20.9966 28.3983 20.8193C28.2248 20.6421 28.1368 20.4246 28.1343 20.1667V7.43967C28.1343 7.17933 28.2223 6.96178 28.3983 6.787C28.5743 6.611 28.7925 6.523 29.0528 6.523Z" fill="#A1B0E7"/>
</g>
<path d="M61.5341 24.9091V26.6136H54.75V24.9091H61.5341ZM56.7273 21.7727H58.7386V34.25C58.7386 34.8182 58.821 35.2443 58.9858 35.5284C59.1563 35.8068 59.3722 35.9943 59.6335 36.0909C59.9006 36.1818 60.1818 36.2273 60.4773 36.2273C60.6989 36.2273 60.8807 36.2159 61.0227 36.1932C61.1648 36.1648 61.2784 36.142 61.3636 36.125L61.7727 37.9318C61.6364 37.983 61.446 38.0341 61.2017 38.0852C60.9574 38.142 60.6477 38.1705 60.2727 38.1705C59.7045 38.1705 59.1477 38.0483 58.6023 37.804C58.0625 37.5597 57.6136 37.1875 57.2557 36.6875C56.9034 36.1875 56.7273 35.5568 56.7273 34.7955V21.7727ZM66.8523 30.125V38H64.8409V20.5455H66.8523V26.9545H67.0227C67.3295 26.2784 67.7898 25.7415 68.4034 25.3438C69.0227 24.9403 69.8466 24.7386 70.875 24.7386C71.767 24.7386 72.5483 24.9176 73.2188 25.2756C73.8892 25.6278 74.4091 26.1705 74.7784 26.9034C75.1534 27.6307 75.3409 28.5568 75.3409 29.6818V38H73.3295V29.8182C73.3295 28.7784 73.0597 27.9744 72.5199 27.4062C71.9858 26.8324 71.2443 26.5455 70.2955 26.5455C69.6364 26.5455 69.0455 26.6847 68.5227 26.9631C68.0057 27.2415 67.5966 27.6477 67.2955 28.1818C67 28.7159 66.8523 29.3636 66.8523 30.125ZM84.5092 38.2727C83.2479 38.2727 82.1598 37.9943 81.245 37.4375C80.3359 36.875 79.6342 36.0909 79.1399 35.0852C78.6513 34.0739 78.407 32.8977 78.407 31.5568C78.407 30.2159 78.6513 29.0341 79.1399 28.0114C79.6342 26.983 80.3217 26.1818 81.2024 25.608C82.0888 25.0284 83.1229 24.7386 84.3047 24.7386C84.9865 24.7386 85.6598 24.8523 86.3246 25.0795C86.9893 25.3068 87.5945 25.6761 88.1399 26.1875C88.6854 26.6932 89.12 27.3636 89.4439 28.1989C89.7678 29.0341 89.9297 30.0625 89.9297 31.2841V32.1364H79.8388V30.3977H87.8842C87.8842 29.6591 87.7365 29 87.4411 28.4205C87.1513 27.8409 86.7365 27.3835 86.1967 27.0483C85.6626 26.7131 85.032 26.5455 84.3047 26.5455C83.5036 26.5455 82.8104 26.7443 82.2251 27.142C81.6456 27.5341 81.1996 28.0455 80.8871 28.6761C80.5746 29.3068 80.4183 29.983 80.4183 30.7045V31.8636C80.4183 32.8523 80.5888 33.6903 80.9297 34.3778C81.2763 35.0597 81.7564 35.5795 82.37 35.9375C82.9837 36.2898 83.6967 36.4659 84.5092 36.4659C85.0376 36.4659 85.5149 36.392 85.9411 36.2443C86.3729 36.0909 86.745 35.8636 87.0575 35.5625C87.37 35.2557 87.6115 34.875 87.782 34.4205L89.7251 34.9659C89.5206 35.625 89.1768 36.2045 88.6939 36.7045C88.2109 37.1989 87.6143 37.5852 86.9041 37.8636C86.1939 38.1364 85.3956 38.2727 84.5092 38.2727ZM109.012 27.8409L107.205 28.3523C107.092 28.0511 106.924 27.7585 106.702 27.4744C106.487 27.1847 106.191 26.946 105.816 26.7585C105.441 26.571 104.961 26.4773 104.376 26.4773C103.575 26.4773 102.907 26.6619 102.373 27.0312C101.844 27.3949 101.58 27.858 101.58 28.4205C101.58 28.9205 101.762 29.3153 102.126 29.6051C102.489 29.8949 103.058 30.1364 103.83 30.3295L105.773 30.8068C106.944 31.0909 107.816 31.5256 108.39 32.1108C108.964 32.6903 109.251 33.4375 109.251 34.3523C109.251 35.1023 109.035 35.7727 108.603 36.3636C108.177 36.9545 107.58 37.4205 106.813 37.7614C106.046 38.1023 105.154 38.2727 104.137 38.2727C102.802 38.2727 101.697 37.983 100.822 37.4034C99.9467 36.8239 99.3928 35.9773 99.1598 34.8636L101.069 34.3864C101.251 35.0909 101.594 35.6193 102.1 35.9716C102.612 36.3239 103.279 36.5 104.103 36.5C105.04 36.5 105.785 36.3011 106.336 35.9034C106.893 35.5 107.171 35.017 107.171 34.4545C107.171 34 107.012 33.6193 106.694 33.3125C106.376 33 105.887 32.767 105.228 32.6136L103.046 32.1023C101.847 31.8182 100.967 31.3778 100.404 30.7812C99.8473 30.179 99.5689 29.4261 99.5689 28.5227C99.5689 27.7841 99.7763 27.1307 100.191 26.5625C100.612 25.9943 101.183 25.5483 101.904 25.2244C102.631 24.9006 103.455 24.7386 104.376 24.7386C105.671 24.7386 106.688 25.0227 107.427 25.5909C108.171 26.1591 108.7 26.9091 109.012 27.8409ZM117.767 38.2727C116.506 38.2727 115.418 37.9943 114.503 37.4375C113.594 36.875 112.892 36.0909 112.398 35.0852C111.909 34.0739 111.665 32.8977 111.665 31.5568C111.665 30.2159 111.909 29.0341 112.398 28.0114C112.892 26.983 113.58 26.1818 114.46 25.608C115.347 25.0284 116.381 24.7386 117.562 24.7386C118.244 24.7386 118.918 24.8523 119.582 25.0795C120.247 25.3068 120.852 25.6761 121.398 26.1875C121.943 26.6932 122.378 27.3636 122.702 28.1989C123.026 29.0341 123.188 30.0625 123.188 31.2841V32.1364H113.097V30.3977H121.142C121.142 29.6591 120.994 29 120.699 28.4205C120.409 27.8409 119.994 27.3835 119.455 27.0483C118.92 26.7131 118.29 26.5455 117.562 26.5455C116.761 26.5455 116.068 26.7443 115.483 27.142C114.903 27.5341 114.457 28.0455 114.145 28.6761C113.832 29.3068 113.676 29.983 113.676 30.7045V31.8636C113.676 32.8523 113.847 33.6903 114.188 34.3778C114.534 35.0597 115.014 35.5795 115.628 35.9375C116.241 36.2898 116.955 36.4659 117.767 36.4659C118.295 36.4659 118.773 36.392 119.199 36.2443C119.631 36.0909 120.003 35.8636 120.315 35.5625C120.628 35.2557 120.869 34.875 121.04 34.4205L122.983 34.9659C122.778 35.625 122.435 36.2045 121.952 36.7045C121.469 37.1989 120.872 37.5852 120.162 37.8636C119.452 38.1364 118.653 38.2727 117.767 38.2727ZM131.565 38.2727C130.338 38.2727 129.281 37.983 128.395 37.4034C127.509 36.8239 126.827 36.0256 126.349 35.0085C125.872 33.9915 125.634 32.8295 125.634 31.5227C125.634 30.1932 125.878 29.0199 126.366 28.0028C126.861 26.9801 127.548 26.1818 128.429 25.608C129.315 25.0284 130.349 24.7386 131.531 24.7386C132.452 24.7386 133.281 24.9091 134.02 25.25C134.759 25.5909 135.364 26.0682 135.835 26.6818C136.307 27.2955 136.599 28.0114 136.713 28.8295H134.702C134.548 28.233 134.207 27.7045 133.679 27.2443C133.156 26.7784 132.452 26.5455 131.565 26.5455C130.781 26.5455 130.094 26.75 129.503 27.1591C128.918 27.5625 128.46 28.1335 128.131 28.8722C127.807 29.6051 127.645 30.4659 127.645 31.4545C127.645 32.4659 127.804 33.3466 128.122 34.0966C128.446 34.8466 128.901 35.429 129.486 35.8438C130.077 36.2585 130.77 36.4659 131.565 36.4659C132.088 36.4659 132.562 36.375 132.989 36.1932C133.415 36.0114 133.776 35.75 134.071 35.4091C134.366 35.0682 134.577 34.6591 134.702 34.1818H136.713C136.599 34.9545 136.318 35.6506 135.869 36.2699C135.426 36.8835 134.838 37.3722 134.105 37.7358C133.378 38.0938 132.531 38.2727 131.565 38.2727ZM144.972 38.2727C143.79 38.2727 142.753 37.9915 141.861 37.429C140.974 36.8665 140.281 36.0795 139.781 35.0682C139.287 34.0568 139.04 32.875 139.04 31.5227C139.04 30.1591 139.287 28.9687 139.781 27.9517C140.281 26.9347 140.974 26.1449 141.861 25.5824C142.753 25.0199 143.79 24.7386 144.972 24.7386C146.153 24.7386 147.188 25.0199 148.074 25.5824C148.966 26.1449 149.659 26.9347 150.153 27.9517C150.653 28.9687 150.903 30.1591 150.903 31.5227C150.903 32.875 150.653 34.0568 150.153 35.0682C149.659 36.0795 148.966 36.8665 148.074 37.429C147.188 37.9915 146.153 38.2727 144.972 38.2727ZM144.972 36.4659C145.869 36.4659 146.608 36.2358 147.188 35.7756C147.767 35.3153 148.196 34.7102 148.474 33.9602C148.753 33.2102 148.892 32.3977 148.892 31.5227C148.892 30.6477 148.753 29.8324 148.474 29.0767C148.196 28.321 147.767 27.7102 147.188 27.2443C146.608 26.7784 145.869 26.5455 144.972 26.5455C144.074 26.5455 143.335 26.7784 142.756 27.2443C142.176 27.7102 141.747 28.321 141.469 29.0767C141.19 29.8324 141.051 30.6477 141.051 31.5227C141.051 32.3977 141.19 33.2102 141.469 33.9602C141.747 34.7102 142.176 35.3153 142.756 35.7756C143.335 36.2358 144.074 36.4659 144.972 36.4659ZM155.985 30.125V38H153.974V24.9091H155.917V26.9545H156.087C156.394 26.2898 156.86 25.7557 157.485 25.3523C158.11 24.9432 158.917 24.7386 159.906 24.7386C160.792 24.7386 161.567 24.9205 162.232 25.2841C162.897 25.642 163.414 26.1875 163.783 26.9205C164.153 27.6477 164.337 28.5682 164.337 29.6818V38H162.326V29.8182C162.326 28.7898 162.059 27.9886 161.525 27.4148C160.991 26.8352 160.258 26.5455 159.326 26.5455C158.684 26.5455 158.11 26.6847 157.604 26.9631C157.104 27.2415 156.71 27.6477 156.42 28.1818C156.13 28.7159 155.985 29.3636 155.985 30.125ZM172.956 38.2727C171.865 38.2727 170.902 37.9972 170.067 37.446C169.232 36.8892 168.578 36.1051 168.107 35.0938C167.635 34.0767 167.399 32.875 167.399 31.4886C167.399 30.1136 167.635 28.9205 168.107 27.9091C168.578 26.8977 169.234 26.1165 170.075 25.5653C170.916 25.0142 171.888 24.7386 172.99 24.7386C173.842 24.7386 174.516 24.8807 175.01 25.1648C175.51 25.4432 175.891 25.7614 176.152 26.1193C176.419 26.4716 176.626 26.7614 176.774 26.9886H176.945V20.5455H178.956V38H177.013V35.9886H176.774C176.626 36.2273 176.416 36.5284 176.143 36.892C175.871 37.25 175.482 37.571 174.976 37.8551C174.47 38.1335 173.797 38.2727 172.956 38.2727ZM173.229 36.4659C174.036 36.4659 174.717 36.2557 175.274 35.8352C175.831 35.4091 176.254 34.821 176.544 34.071C176.834 33.3153 176.979 32.4432 176.979 31.4545C176.979 30.4773 176.837 29.6222 176.553 28.8892C176.268 28.1506 175.848 27.5767 175.291 27.1676C174.734 26.7528 174.047 26.5455 173.229 26.5455C172.376 26.5455 171.666 26.7642 171.098 27.2017C170.536 27.6335 170.112 28.2216 169.828 28.9659C169.55 29.7045 169.411 30.5341 169.411 31.4545C169.411 32.3864 169.553 33.233 169.837 33.9943C170.126 34.75 170.553 35.3523 171.115 35.8011C171.683 36.2443 172.388 36.4659 173.229 36.4659ZM189.942 38V20.5455H191.953V26.9886H192.124C192.271 26.7614 192.476 26.4716 192.737 26.1193C193.004 25.7614 193.385 25.4432 193.879 25.1648C194.379 24.8807 195.055 24.7386 195.908 24.7386C197.01 24.7386 197.982 25.0142 198.822 25.5653C199.663 26.1165 200.32 26.8977 200.791 27.9091C201.263 28.9205 201.499 30.1136 201.499 31.4886C201.499 32.875 201.263 34.0767 200.791 35.0938C200.32 36.1051 199.666 36.8892 198.831 37.446C197.996 37.9972 197.033 38.2727 195.942 38.2727C195.101 38.2727 194.428 38.1335 193.922 37.8551C193.416 37.571 193.027 37.25 192.754 36.892C192.482 36.5284 192.271 36.2273 192.124 35.9886H191.885V38H189.942ZM191.919 31.4545C191.919 32.4432 192.064 33.3153 192.354 34.071C192.643 34.821 193.067 35.4091 193.624 35.8352C194.18 36.2557 194.862 36.4659 195.669 36.4659C196.51 36.4659 197.212 36.2443 197.774 35.8011C198.342 35.3523 198.768 34.75 199.053 33.9943C199.342 33.233 199.487 32.3864 199.487 31.4545C199.487 30.5341 199.345 29.7045 199.061 28.9659C198.783 28.2216 198.359 27.6335 197.791 27.2017C197.229 26.7642 196.521 26.5455 195.669 26.5455C194.851 26.5455 194.163 26.7528 193.607 27.1676C193.05 27.5767 192.629 28.1506 192.345 28.8892C192.061 29.6222 191.919 30.4773 191.919 31.4545ZM204.575 38V24.9091H206.518V26.8864H206.655C206.893 26.2386 207.325 25.7131 207.95 25.3097C208.575 24.9062 209.28 24.7045 210.064 24.7045C210.212 24.7045 210.396 24.7074 210.618 24.7131C210.839 24.7187 211.007 24.7273 211.121 24.7386V26.7841C211.053 26.767 210.896 26.7415 210.652 26.7074C210.413 26.6676 210.161 26.6477 209.893 26.6477C209.257 26.6477 208.689 26.7812 208.189 27.0483C207.695 27.3097 207.303 27.6733 207.013 28.1392C206.729 28.5994 206.587 29.125 206.587 29.7159V38H204.575ZM218.595 38.2727C217.334 38.2727 216.246 37.9943 215.331 37.4375C214.422 36.875 213.72 36.0909 213.226 35.0852C212.737 34.0739 212.493 32.8977 212.493 31.5568C212.493 30.2159 212.737 29.0341 213.226 28.0114C213.72 26.983 214.408 26.1818 215.288 25.608C216.175 25.0284 217.209 24.7386 218.391 24.7386C219.072 24.7386 219.746 24.8523 220.411 25.0795C221.075 25.3068 221.68 25.6761 222.226 26.1875C222.771 26.6932 223.206 27.3636 223.53 28.1989C223.854 29.0341 224.016 30.0625 224.016 31.2841V32.1364H213.925V30.3977H221.97C221.97 29.6591 221.822 29 221.527 28.4205C221.237 27.8409 220.822 27.3835 220.283 27.0483C219.749 26.7131 219.118 26.5455 218.391 26.5455C217.589 26.5455 216.896 26.7443 216.311 27.142C215.732 27.5341 215.286 28.0455 214.973 28.6761C214.661 29.3068 214.504 29.983 214.504 30.7045V31.8636C214.504 32.8523 214.675 33.6903 215.016 34.3778C215.362 35.0597 215.842 35.5795 216.456 35.9375C217.07 36.2898 217.783 36.4659 218.595 36.4659C219.124 36.4659 219.601 36.392 220.027 36.2443C220.459 36.0909 220.831 35.8636 221.143 35.5625C221.456 35.2557 221.697 34.875 221.868 34.4205L223.811 34.9659C223.607 35.625 223.263 36.2045 222.78 36.7045C222.297 37.1989 221.7 37.5852 220.99 37.8636C220.28 38.1364 219.482 38.2727 218.595 38.2727ZM230.928 38.3068C230.098 38.3068 229.345 38.1506 228.669 37.8381C227.993 37.5199 227.456 37.0625 227.058 36.4659C226.661 35.8636 226.462 35.1364 226.462 34.2841C226.462 33.5341 226.609 32.9261 226.905 32.4602C227.2 31.9886 227.595 31.6193 228.089 31.3523C228.584 31.0852 229.129 30.8864 229.726 30.7557C230.328 30.6193 230.933 30.5114 231.541 30.4318C232.337 30.3295 232.982 30.2528 233.476 30.2017C233.976 30.1449 234.339 30.0511 234.567 29.9205C234.8 29.7898 234.916 29.5625 234.916 29.2386V29.1705C234.916 28.3295 234.686 27.6761 234.226 27.2102C233.771 26.7443 233.081 26.5114 232.155 26.5114C231.195 26.5114 230.442 26.7216 229.896 27.142C229.351 27.5625 228.967 28.0114 228.746 28.4886L226.837 27.8068C227.178 27.0114 227.632 26.392 228.2 25.9489C228.774 25.5 229.399 25.1875 230.075 25.0114C230.757 24.8295 231.428 24.7386 232.087 24.7386C232.507 24.7386 232.99 24.7898 233.536 24.892C234.087 24.9886 234.618 25.1903 235.129 25.4972C235.646 25.804 236.075 26.267 236.416 26.8864C236.757 27.5057 236.928 28.3352 236.928 29.375V38H234.916V36.2273H234.814C234.678 36.5114 234.45 36.8153 234.132 37.1392C233.814 37.4631 233.391 37.7386 232.862 37.9659C232.334 38.1932 231.689 38.3068 230.928 38.3068ZM231.234 36.5C232.03 36.5 232.7 36.3438 233.246 36.0312C233.797 35.7188 234.212 35.3153 234.49 34.821C234.774 34.3267 234.916 33.8068 234.916 33.2614V31.4205C234.831 31.5227 234.643 31.6165 234.354 31.7017C234.07 31.7812 233.74 31.8523 233.365 31.9148C232.996 31.9716 232.635 32.0227 232.283 32.0682C231.936 32.108 231.655 32.142 231.439 32.1705C230.916 32.2386 230.428 32.3494 229.973 32.5028C229.524 32.6506 229.161 32.875 228.882 33.1761C228.609 33.4716 228.473 33.875 228.473 34.3864C228.473 35.0852 228.732 35.6136 229.249 35.9716C229.771 36.3239 230.433 36.5 231.234 36.5ZM246.292 24.9091V26.6136H239.508V24.9091H246.292ZM241.485 21.7727H243.496V34.25C243.496 34.8182 243.579 35.2443 243.744 35.5284C243.914 35.8068 244.13 35.9943 244.391 36.0909C244.658 36.1818 244.94 36.2273 245.235 36.2273C245.457 36.2273 245.638 36.2159 245.781 36.1932C245.923 36.1648 246.036 36.142 246.121 36.125L246.531 37.9318C246.394 37.983 246.204 38.0341 245.96 38.0852C245.715 38.142 245.406 38.1705 245.031 38.1705C244.462 38.1705 243.906 38.0483 243.36 37.804C242.82 37.5597 242.371 37.1875 242.013 36.6875C241.661 36.1875 241.485 35.5568 241.485 34.7955V21.7727ZM251.61 30.125V38H249.599V20.5455H251.61V26.9545H251.781C252.087 26.2784 252.548 25.7415 253.161 25.3438C253.781 24.9403 254.604 24.7386 255.633 24.7386C256.525 24.7386 257.306 24.9176 257.977 25.2756C258.647 25.6278 259.167 26.1705 259.536 26.9034C259.911 27.6307 260.099 28.5568 260.099 29.6818V38H258.087V29.8182C258.087 28.7784 257.817 27.9744 257.278 27.4062C256.744 26.8324 256.002 26.5455 255.053 26.5455C254.394 26.5455 253.803 26.6847 253.281 26.9631C252.763 27.2415 252.354 27.6477 252.053 28.1818C251.758 28.7159 251.61 29.3636 251.61 30.125Z" fill="#A1B0E7"/>
<defs>
<clipPath id="clip0_1_64">
<rect width="44" height="44" fill="white"/>
</clipPath>
</defs>
</svg>
